<svg width="239" height="302" viewBox="0 0 239 302" fill="none" xmlns="http://www.w3.org/2000/svg">
<path d="M126.287 123.686C127.806 143.521 139.472 161.577 157.496 171.983C175.52 182.389 196.989 183.464 214.925 174.861L258.146 154.133C265.317 150.694 270.903 145.163 274.299 138.142C277.696 131.119 278.582 123.266 276.865 115.425C275.143 107.588 270.976 100.505 264.817 94.9427C258.658 89.38 251.083 85.8634 242.913 84.7708L242.365 84.6994C221.885 81.814 202.942 70.7946 190.317 54.4044C187.06 50.177 183.046 46.673 178.477 44.0352C175.993 42.6011 173.342 41.4227 170.561 40.5219C162.665 37.968 154.448 37.9012 146.797 40.3285C139.15 42.7562 132.789 47.451 128.403 53.9046C124.017 60.3581 122.021 67.9603 122.627 75.8926L126.287 123.686Z" fill="#FFBD54"/>
<path d="M232.026 184.794C223.603 183.278 215.266 185.484 208.549 191.008C202.157 196.264 197.989 203.958 196.815 212.676C195.646 221.39 197.595 230.18 202.303 237.429C207.249 245.043 214.611 250.068 223.025 251.573C239.944 254.614 255.734 242.108 258.227 223.687C260.193 209.014 253.135 194.96 241.631 188.318C238.693 186.622 235.466 185.41 232.026 184.794Z" fill="#FFBD54"/>
<path d="M171.046 185.377C153.536 175.268 130.512 182.25 119.72 200.941C108.926 219.636 114.391 243.07 131.9 253.179C149.408 263.287 172.433 256.302 183.227 237.606C194.018 218.915 188.553 195.485 171.046 185.377Z" fill="#FFBD54"/>
<path d="M121.013 145.387L121.011 145.386C118.802 142.994 116.285 141.007 113.549 139.427C100.779 132.055 83.3074 133.578 70.8325 144.219C63.6502 150.344 59.1272 158.593 58.0976 167.446C57.0181 176.713 59.8457 185.524 66.0604 192.258C72.2767 198.994 81.0407 202.741 90.7385 202.814C100.003 202.884 109.059 199.547 116.238 193.42C131.385 180.498 133.527 158.95 121.013 145.387Z" fill="#FFBD54"/>
<path d="M51.8562 110.734L51.8585 110.742C59.1083 126.07 79.2583 132.874 96.7818 125.906C114.299 118.926 122.668 100.778 115.44 85.4535C112.805 79.8628 108.452 75.4044 103.134 72.3343C93.8664 66.9836 81.6655 65.8488 70.5144 70.2775C52.9989 77.2584 44.6282 95.4059 51.8562 110.734Z" fill="#FFBD54"/>
</svg>
